# xmcd
#
# Track frame offsets:
#	150
#	17246
#	34932
#	51619
#	67973
#	81756
#	100428
#	118194
#	134268
#	153670
#	171705
#	188739
#	204683
#	227530
#	244231
#	267023
#	288202
#	302971
#
# Disc length: 4313 seconds
#
# Revision: 1
# Processed by: cddbd v1.5.1PL2 Copyright (c) Steve Scherf et al.
# Submitted via: audiograbber 1.83.01
#
DISCID=0e10d712
DTITLE=Busta Rhymes - The Big Bang
DYEAR=2006
DGENRE=Rap
TTITLE0=Get You Some ft. Q-Tip and Marsh
TTITLE1=I Love My Bitch ft. Kelis and Wi
TTITLE2=Touch It
TTITLE3=This Is How We Do It Over Here
TTITLE4=New York Shit ft. Swizz Beatz
TTITLE5=Been Thru The Storm ft. Stevie
TTITLE6=In The Ghetto ft. Rick James
TTITLE7=Cocaine
TTITLE8=I'll Hurt You ft. Eminem
TTITLE9=You Can't Hold The Torch ft. Q
TTITLE10=Money Like Back In The Days ft
TTITLE11=Don't Get Carried Away ft. Nas
TTITLE12=They Out To Get Me ft. Denaun
TTITLE13=Get Down
TTITLE14=I'll Do It All
TTITLE15=Legend Of The Fall
TTITLE16=Rough Around The Edges ft. Nas
TTITLE17=Where's Your Money ft. ODB
EXTD=
EXTT0=
EXTT1=
EXTT2=
EXTT3=
EXTT4=
EXTT5=
EXTT6=
EXTT7=
EXTT8=
EXTT9=
EXTT10=
EXTT11=
EXTT12=
EXTT13=
EXTT14=
EXTT15=
EXTT16=
EXTT17=
PLAYORDER=
